<svg width="14" height="14" viewBox="0 0 14 14" fill="none" xmlns="http://www.w3.org/2000/svg">
<path d="M12.8235 0.823529H2.15685C1.42352 0.823529 0.830184 1.42353 0.830184 2.15686L0.823517 14.1569L3.49018 11.4902H12.8235C13.5569 11.4902 14.1569 10.8902 14.1569 10.1569V2.15686C14.1569 1.42353 13.5569 0.823529 12.8235 0.823529ZM12.8235 10.1569H2.93685L2.54352 10.5502L2.15685 10.9369V2.15686H12.8235V10.1569ZM6.49018 8.82353H11.4902V7.4902H7.82352L6.49018 8.82353ZM9.06352 4.9102C9.19685 4.77686 9.19685 4.5702 9.06352 4.43686L7.88352 3.25686C7.75018 3.12353 7.54352 3.12353 7.41018 3.25686L3.49018 7.17686V8.82353H5.13685L9.06352 4.9102Z" fill="#454F5B"/>
</svg>
