<svg width="24" height="24" viewBox="0 0 24 24" fill="none" xmlns="http://www.w3.org/2000/svg">
<path d="M22.2449 0.480713H1.74824C1.41097 0.480713 1.08752 0.614693 0.849029 0.853179C0.610543 1.09167 0.476563 1.41512 0.476562 1.75239V22.2494C0.476647 22.5866 0.610665 22.9099 0.849142 23.1484C1.08762 23.3868 1.41103 23.5207 1.74824 23.5207H12.7828V14.5985H9.78024V11.1214H12.7828V8.55687C12.7828 5.58087 14.6004 3.96071 17.2551 3.96071C18.5268 3.96071 19.6196 4.05511 19.9383 4.09767V7.20775L18.097 7.20871C16.6532 7.20871 16.3738 7.89479 16.3738 8.90151V11.1217H19.817L19.3687 14.5988H16.3738V23.5207H22.2452C22.5824 23.5206 22.9058 23.3866 23.1442 23.1481C23.3826 22.9097 23.5166 22.5863 23.5166 22.249V1.75239C23.5166 1.41512 23.3826 1.09167 23.1441 0.853179C22.9056 0.614693 22.5822 0.480713 22.2449 0.480713Z" fill="#970001"/>
</svg>
