<svg width="26" height="26" viewBox="0 0 26 26" fill="none" xmlns="http://www.w3.org/2000/svg">
<path d="M12.9962 8.83447C10.7025 8.83447 8.83062 10.7063 8.83062 13.0001C8.83062 15.2938 10.7025 17.1657 12.9962 17.1657C15.29 17.1657 17.1619 15.2938 17.1619 13.0001C17.1619 10.7063 15.29 8.83447 12.9962 8.83447ZM25.49 13.0001C25.49 11.2751 25.5056 9.56572 25.4087 7.84385C25.3119 5.84385 24.8556 4.06885 23.3931 2.60635C21.9275 1.14072 20.1556 0.687599 18.1556 0.590724C16.4306 0.493849 14.7212 0.509474 12.9994 0.509474C11.2744 0.509474 9.56499 0.493849 7.84312 0.590724C5.84312 0.687599 4.06812 1.14385 2.60562 2.60635C1.13999 4.07197 0.686867 5.84385 0.589992 7.84385C0.493117 9.56885 0.508742 11.2782 0.508742 13.0001C0.508742 14.722 0.493117 16.4345 0.589992 18.1563C0.686867 20.1563 1.14312 21.9313 2.60562 23.3938C4.07124 24.8595 5.84312 25.3126 7.84312 25.4095C9.56812 25.5063 11.2775 25.4907 12.9994 25.4907C14.7244 25.4907 16.4337 25.5063 18.1556 25.4095C20.1556 25.3126 21.9306 24.8563 23.3931 23.3938C24.8587 21.9282 25.3119 20.1563 25.4087 18.1563C25.5087 16.4345 25.49 14.7251 25.49 13.0001ZM12.9962 19.4095C9.44937 19.4095 6.58687 16.547 6.58687 13.0001C6.58687 9.45322 9.44937 6.59072 12.9962 6.59072C16.5431 6.59072 19.4056 9.45322 19.4056 13.0001C19.4056 16.547 16.5431 19.4095 12.9962 19.4095ZM19.6681 7.8251C18.84 7.8251 18.1712 7.15635 18.1712 6.32822C18.1712 5.5001 18.84 4.83135 19.6681 4.83135C20.4962 4.83135 21.165 5.5001 21.165 6.32822C21.1652 6.52486 21.1267 6.71962 21.0515 6.90134C20.9764 7.08306 20.8662 7.24818 20.7271 7.38722C20.5881 7.52627 20.423 7.63652 20.2412 7.71166C20.0595 7.7868 19.8648 7.82534 19.6681 7.8251Z" fill="#970001"/>
</svg>
