<svg width="150" height="23" viewBox="0 0 150 23" fill="none" xmlns="http://www.w3.org/2000/svg">
<path d="M0.03125 6.07981C0.03125 6.07981 0.838725 0.881122 4.90058 0.441796V13.0602C4.90058 15.3789 3.99522 15.9891 3.99522 15.9891H12.2168C12.2168 15.9891 11.3114 15.3789 11.3114 13.0602V0.441796C15.3733 0.881122 16.1563 6.07981 16.1563 6.07981V0.100098H0.03125V6.07981Z" fill="#970001"/>
<path d="M51.2186 10.0091C51.2186 10.0091 51.9282 5.44504 55.4518 4.85927V13.3285C55.4518 15.6472 54.5464 16.2573 54.5464 16.2573H62.768C62.768 16.2573 61.8626 15.6472 61.8626 13.3285V4.85927C65.3862 5.42063 66.0958 10.0091 66.0958 10.0091V4.49316H51.2186V10.0091Z" fill="#970001"/>
<path d="M98.2734 10.0091C98.2734 10.0091 98.983 5.44504 102.507 4.85927V13.3285C102.507 15.6472 101.601 16.2573 101.601 16.2573H109.823C109.823 16.2573 108.917 15.6472 108.917 13.3285V4.85927C112.441 5.42063 113.151 10.0091 113.151 10.0091V4.49316H98.2734V10.0091Z" fill="#970001"/>
<path d="M134.875 4.49316V10.0091C134.875 10.0091 135.585 5.44504 139.108 4.85927V13.3285C139.108 15.6472 138.203 16.2573 138.203 16.2573H146.4C146.4 16.2573 145.495 15.6472 145.495 13.3285V4.85927C149.018 5.42063 149.728 10.0091 149.728 10.0091V4.49316H134.875Z" fill="#970001"/>
<path d="M25.0342 4.29785C20.2138 4.29785 17.669 6.98262 17.6445 10.302C17.669 13.5969 20.2138 16.2817 25.0342 16.2817C29.8301 16.2817 32.3749 13.5969 32.3993 10.302C32.3993 6.98262 29.8301 4.29785 25.0342 4.29785ZM25.0342 16.0864C23.4926 16.0864 23.4192 12.7427 23.3703 10.302C23.4192 7.83687 23.4926 4.49311 25.0342 4.49311C26.5512 4.49311 26.6246 7.83687 26.6736 10.302C26.6246 12.7427 26.5512 16.0864 25.0342 16.0864Z" fill="#970001"/>
<path d="M44.1003 4.2981C42.9013 4.2981 41.8491 4.71301 41.0172 5.76252L40.4789 4.56657H34.4106C34.4106 4.56657 35.3159 5.12793 35.3159 7.47101V18.6494C35.3159 20.9925 34.3861 21.5783 34.3861 21.5783H42.0204C42.0204 21.5783 41.1151 20.9925 41.1151 18.6494V14.8907C41.7757 15.9158 42.9013 16.2819 44.1248 16.2819C47.1344 16.2819 49.6303 14.3538 49.6303 10.3022C49.6058 6.88524 47.6238 4.2981 44.1003 4.2981ZM41.947 15.2813C41.5066 15.3789 41.1151 14.7687 41.1151 14.0609V10.7171V6.00659C41.4821 5.51845 41.8002 5.10353 42.2651 5.20115C43.2439 5.372 43.6354 7.86152 43.6354 10.2778C43.6109 12.8161 42.9258 15.0616 41.947 15.2813Z" fill="#970001"/>
<path d="M83.4716 13.0847V4.56665H76.7916C76.7916 4.56665 77.6969 5.17683 77.6969 7.5199V13.2067C77.6969 14.3539 77.0607 15.1593 76.4245 15.1593C75.3479 15.1349 75.2745 13.3776 75.2745 12.0352V4.56665H68.5945C68.5945 4.56665 69.4998 5.17683 69.4998 7.5199V11.8155C69.4998 14.3295 70.8701 16.3064 74.1 16.3064C75.299 16.3064 76.9873 16.0135 77.7214 14.5003C77.8927 15.5498 78.3576 16.0135 79.63 16.0135H84.4014C84.377 16.0135 83.4716 15.4034 83.4716 13.0847Z" fill="#970001"/>
<path d="M126.708 11.7665C126.39 12.7428 126.048 13.3773 126.048 13.3773L123.968 7.51965C123.234 5.2498 123.846 4.56641 123.846 4.56641H115.648C115.648 4.56641 116.921 5.46947 117.753 7.51965C118.56 9.54544 121.154 16.0133 121.154 16.0133H125.069C124.751 16.7943 124.506 17.3557 124.408 17.5021C122.695 21.212 122.647 17.1604 119.882 17.3069C116.847 17.4777 116.456 21.2364 118.976 22.115C120.958 22.8229 122.769 22.0418 124.115 18.991C124.604 17.8438 124.996 16.8431 125.338 16.0133L127.491 10.3265C128.911 6.86067 130.134 5.34743 132.189 4.59081H125.289C127.565 5.39624 128.054 7.78813 126.708 11.7665Z" fill="#970001"/>
</svg>
